  0
SECTION
  2
HEADER
  9
$ACADVER
  1
AC1009
  9
$EXTMIN
 10
0.0
 20
0.0
 30
0.0
  9
$EXTMAX
 10
1000.0
 20
1000.0
 30
0.0
  9
$FILLMODE
 70
 0
  9
$SPLFRAME
 70
 1
  0
ENDSEC
  0
SECTION
  2
TABLES
  0
TABLE
  2
LAYER
 70
1
  0
LAYER
  2
0
 70
     0
 62
     7
  6
CONTINUOUS
  0
ENDTAB
  0
ENDSEC
  0
SECTION
  2
ENTITIES
  0
POLYLINE
  8
0
 62
     150
 66
     1
 10
0
 20
0
 30
0.0
 70
     1
 40
0
 41
0
  0
VERTEX
  8
0
 10
3.21029
 20
6.07433
 30
0.0
 40
0
 41
0
  0
VERTEX
  8
0
 10
3.21582
 20
6.09646
 30
0.0
 40
0
 41
0
  0
VERTEX
  8
0
 10
3.22851
 20
6.11561
 30
0.0
 40
0
 41
0
  0
VERTEX
  8
0
 10
3.2461
 20
6.13037
 30
0.0
 40
0
 41
0
  0
VERTEX
  8
0
 10
3.26628
 20
6.13921
 30
0.0
 40
0
 41
0
  0
VERTEX
  8
0
 10
3.31336
 20
6.14996
 30
0.0
 40
0
 41
0
  0
VERTEX
  8
0
 10
3.35981
 20
6.15474
 30
0.0
 40
0
 41
0
  0
VERTEX
  8
0
 10
3.41644
 20
6.15597
 30
0.0
 40
0
 41
0
  0
VERTEX
  8
0
 10
3.49414
 20
6.15619
 30
0.0
 40
0
 41
0
  0
VERTEX
  8
0
 10
3.44254
 20
6.10047
 30
0.0
 40
0
 41
0
  0
VERTEX
  8
0
 10
3.40196
 20
6.03418
 30
0.0
 40
0
 41
0
  0
VERTEX
  8
0
 10
3.37771
 20
5.96121
 30
0.0
 40
0
 41
0
  0
VERTEX
  8
0
 10
3.37494
 20
5.88536
 30
0.0
 40
0
 41
0
  0
VERTEX
  8
0
 10
3.33974
 20
5.92301
 30
0.0
 40
0
 41
0
  0
VERTEX
  8
0
 10
3.30761
 20
5.9624
 30
0.0
 40
0
 41
0
  0
VERTEX
  8
0
 10
3.32954
 20
6.01432
 30
0.0
 40
0
 41
0
  0
VERTEX
  8
0
 10
3.33817
 20
6.03331
 30
0.0
 40
0
 41
0
  0
VERTEX
  8
0
 10
3.3514
 20
6.04486
 30
0.0
 40
0
 41
0
  0
VERTEX
  8
0
 10
3.36828
 20
6.05046
 30
0.0
 40
0
 41
0
  0
VERTEX
  8
0
 10
3.38792
 20
6.0516
 30
0.0
 40
0
 41
0
  0
VERTEX
  8
0
 10
3.3871
 20
6.06358
 30
0.0
 40
0
 41
0
  0
VERTEX
  8
0
 10
3.37896
 20
6.07676
 30
0.0
 40
0
 41
0
  0
VERTEX
  8
0
 10
3.34858
 20
6.07969
 30
0.0
 40
0
 41
0
  0
VERTEX
  8
0
 10
3.31575
 20
6.08567
 30
0.0
 40
0
 41
0
  0
VERTEX
  8
0
 10
3.29303
 20
6.08078
 30
0.0
 40
0
 41
0
  0
VERTEX
  8
0
 10
3.26633
 20
6.06044
 30
0.0
 40
0
 41
0
  0
VERTEX
  8
0
 10
3.2379
 20
6.04189
 30
0.0
 40
0
 41
0
  0
VERTEX
  8
0
 10
3.21029
 20
6.07433
 30
0.0
 40
0
 41
0
  0
SEQEND
 8
0
  0
POLYLINE
  8
0
 62
     150
 66
     1
 10
0
 20
0
 30
0.0
 70
     1
 40
0
 41
0
  0
VERTEX
  8
0
 10
2.83567
 20
6.09457
 30
0.0
 40
0
 41
0
  0
VERTEX
  8
0
 10
2.89899
 20
6.13037
 30
0.0
 40
0
 41
0
  0
VERTEX
  8
0
 10
2.96783
 20
6.15218
 30
0.0
 40
0
 41
0
  0
VERTEX
  8
0
 10
3.01525
 20
6.15821
 30
0.0
 40
0
 41
0
  0
VERTEX
  8
0
 10
3.06228
 20
6.15685
 30
0.0
 40
0
 41
0
  0
VERTEX
  8
0
 10
3.10628
 20
6.14492
 30
0.0
 40
0
 41
0
  0
VERTEX
  8
0
 10
3.14464
 20
6.11892
 30
0.0
 40
0
 41
0
  0
VERTEX
  8
0
 10
3.26736
 20
5.98774
 30
0.0
 40
0
 41
0
  0
VERTEX
  8
0
 10
3.38222
 20
5.84804
 30
0.0
 40
0
 41
0
  0
VERTEX
  8
0
 10
3.384
 20
5.83908
 30
0.0
 40
0
 41
0
  0
VERTEX
  8
0
 10
3.38222
 20
5.83187
 30
0.0
 40
0
 41
0
  0
VERTEX
  8
0
 10
3.29947
 20
5.7889
 30
0.0
 40
0
 41
0
  0
VERTEX
  8
0
 10
3.21436
 20
5.75319
 30
0.0
 40
0
 41
0
  0
VERTEX
  8
0
 10
3.19933
 20
5.75304
 30
0.0
 40
0
 41
0
  0
VERTEX
  8
0
 10
3.18679
 20
5.75885
 30
0.0
 40
0
 41
0
  0
VERTEX
  8
0
 10
3.06879
 20
5.88781
 30
0.0
 40
0
 41
0
  0
VERTEX
  8
0
 10
2.95324
 20
6.01915
 30
0.0
 40
0
 41
0
  0
VERTEX
  8
0
 10
2.8999
 20
6.06022
 30
0.0
 40
0
 41
0
  0
VERTEX
  8
0
 10
2.83811
 20
6.08729
 30
0.0
 40
0
 41
0
  0
VERTEX
  8
0
 10
2.83567
 20
6.09457
 30
0.0
 40
0
 41
0
  0
SEQEND
 8
0
  0
POLYLINE
  8
0
 62
     150
 66
     1
 10
0
 20
0
 30
0.0
 70
     1
 40
0
 41
0
  0
VERTEX
  8
0
 10
3.14382
 20
5.7029
 30
0.0
 40
0
 41
0
  0
VERTEX
  8
0
 10
3.05621
 20
5.62679
 30
0.0
 40
0
 41
0
  0
VERTEX
  8
0
 10
2.98568
 20
5.53424
 30
0.0
 40
0
 41
0
  0
VERTEX
  8
0
 10
2.97461
 20
5.6345
 30
0.0
 40
0
 41
0
  0
VERTEX
  8
0
 10
2.99219
 20
5.73292
 30
0.0
 40
0
 41
0
  0
VERTEX
  8
0
 10
3.01406
 20
5.82568
 30
0.0
 40
0
 41
0
  0
VERTEX
  8
0
 10
3.02138
 20
5.92025
 30
0.0
 40
0
 41
0
  0
VERTEX
  8
0
 10
3.08431
 20
5.84776
 30
0.0
 40
0
 41
0
  0
VERTEX
  8
0
 10
3.14546
 20
5.77588
 30
0.0
 40
0
 41
0
  0
VERTEX
  8
0
 10
3.14382
 20
5.7029
 30
0.0
 40
0
 41
0
  0
SEQEND
 8
0
  0
POLYLINE
  8
0
 62
     0
 66
     1
 10
0
 20
0
 30
0.0
 70
     1
 40
0
 41
0
  0
VERTEX
  8
0
 10
3.70335
 20
5.94862
 30
0.0
 40
0
 41
0
  0
VERTEX
  8
0
 10
3.66282
 20
5.94862
 30
0.0
 40
0
 41
0
  0
VERTEX
  8
0
 10
3.61312
 20
6.00906
 30
0.0
 40
0
 41
0
  0
VERTEX
  8
0
 10
3.572
 20
6.067
 30
0.0
 40
0
 41
0
  0
VERTEX
  8
0
 10
3.57118
 20
6.067
 30
0.0
 40
0
 41
0
  0
VERTEX
  8
0
 10
3.57118
 20
5.94862
 30
0.0
 40
0
 41
0
  0
VERTEX
  8
0
 10
3.52333
 20
5.94862
 30
0.0
 40
0
 41
0
  0
VERTEX
  8
0
 10
3.52333
 20
6.15136
 30
0.0
 40
0
 41
0
  0
VERTEX
  8
0
 10
3.56711
 20
6.15136
 30
0.0
 40
0
 41
0
  0
VERTEX
  8
0
 10
3.59104
 20
6.12164
 30
0.0
 40
0
 41
0
  0
VERTEX
  8
0
 10
3.61632
 20
6.08974
 30
0.0
 40
0
 41
0
  0
VERTEX
  8
0
 10
3.63889
 20
6.05968
 30
0.0
 40
0
 41
0
  0
VERTEX
  8
0
 10
3.65468
 20
6.03538
 30
0.0
 40
0
 41
0
  0
VERTEX
  8
0
 10
3.65549
 20
6.03538
 30
0.0
 40
0
 41
0
  0
VERTEX
  8
0
 10
3.65549
 20
6.15136
 30
0.0
 40
0
 41
0
  0
VERTEX
  8
0
 10
3.70335
 20
6.15136
 30
0.0
 40
0
 41
0
  0
VERTEX
  8
0
 10
3.70335
 20
5.94862
 30
0.0
 40
0
 41
0
  0
SEQEND
 8
0
  0
POLYLINE
  8
0
 62
     0
 66
     1
 10
0
 20
0
 30
0.0
 70
     1
 40
0
 41
0
  0
VERTEX
  8
0
 10
3.84526
 20
6.15136
 30
0.0
 40
0
 41
0
  0
VERTEX
  8
0
 10
3.92231
 20
5.94862
 30
0.0
 40
0
 41
0
  0
VERTEX
  8
0
 10
3.85742
 20
5.94862
 30
0.0
 40
0
 41
0
  0
VERTEX
  8
0
 10
3.84119
 20
5.99647
 30
0.0
 40
0
 41
0
  0
VERTEX
  8
0
 10
3.77875
 20
5.99647
 30
0.0
 40
0
 41
0
  0
VERTEX
  8
0
 10
3.75933
 20
5.94862
 30
0.0
 40
0
 41
0
  0
VERTEX
  8
0
 10
3.71149
 20
5.94862
 30
0.0
 40
0
 41
0
  0
VERTEX
  8
0
 10
3.79417
 20
6.15136
 30
0.0
 40
0
 41
0
  0
VERTEX
  8
0
 10
3.84526
 20
6.15136
 30
0.0
 40
0
 41
0
  0
SEQEND
 8
0
  0
POLYLINE
  8
0
 62
     0
 66
     1
 10
0
 20
0
 30
0.0
 70
     1
 40
0
 41
0
  0
VERTEX
  8
0
 10
3.83149
 20
6.02892
 30
0.0
 40
0
 41
0
  0
VERTEX
  8
0
 10
3.82206
 20
6.06347
 30
0.0
 40
0
 41
0
  0
VERTEX
  8
0
 10
3.81201
 20
6.10107
 30
0.0
 40
0
 41
0
  0
VERTEX
  8
0
 10
3.81119
 20
6.10107
 30
0.0
 40
0
 41
0
  0
VERTEX
  8
0
 10
3.79986
 20
6.06347
 30
0.0
 40
0
 41
0
  0
VERTEX
  8
0
 10
3.78851
 20
6.02892
 30
0.0
 40
0
 41
0
  0
VERTEX
  8
0
 10
3.83149
 20
6.02892
 30
0.0
 40
0
 41
0
  0
SEQEND
 8
0
  0
POLYLINE
  8
0
 62
     0
 66
     1
 10
0
 20
0
 30
0.0
 70
     1
 40
0
 41
0
  0
VERTEX
  8
0
 10
3.94179
 20
5.94862
 30
0.0
 40
0
 41
0
  0
VERTEX
  8
0
 10
3.94179
 20
6.11322
 30
0.0
 40
0
 41
0
  0
VERTEX
  8
0
 10
3.8826
 20
6.11322
 30
0.0
 40
0
 41
0
  0
VERTEX
  8
0
 10
3.8826
 20
6.15136
 30
0.0
 40
0
 41
0
  0
VERTEX
  8
0
 10
4.06099
 20
6.15136
 30
0.0
 40
0
 41
0
  0
VERTEX
  8
0
 10
4.06099
 20
6.11322
 30
0.0
 40
0
 41
0
  0
VERTEX
  8
0
 10
4.00261
 20
6.11322
 30
0.0
 40
0
 41
0
  0
VERTEX
  8
0
 10
4.00261
 20
5.94862
 30
0.0
 40
0
 41
0
  0
VERTEX
  8
0
 10
3.94179
 20
5.94862
 30
0.0
 40
0
 41
0
  0
SEQEND
 8
0
  0
POLYLINE
  8
0
 62
     0
 66
     1
 10
0
 20
0
 30
0.0
 70
     1
 40
0
 41
0
  0
VERTEX
  8
0
 10
4.08046
 20
6.15136
 30
0.0
 40
0
 41
0
  0
VERTEX
  8
0
 10
4.14128
 20
6.15136
 30
0.0
 40
0
 41
0
  0
VERTEX
  8
0
 10
4.14128
 20
5.94862
 30
0.0
 40
0
 41
0
  0
VERTEX
  8
0
 10
4.08046
 20
5.94862
 30
0.0
 40
0
 41
0
  0
VERTEX
  8
0
 10
4.08046
 20
6.15136
 30
0.0
 40
0
 41
0
  0
SEQEND
 8
0
  0
POLYLINE
  8
0
 62
     0
 66
     1
 10
0
 20
0
 30
0.0
 70
     1
 40
0
 41
0
  0
VERTEX
  8
0
 10
4.15668
 20
6.0524
 30
0.0
 40
0
 41
0
  0
VERTEX
  8
0
 10
4.16417
 20
6.09233
 30
0.0
 40
0
 41
0
  0
VERTEX
  8
0
 10
4.18506
 20
6.12478
 30
0.0
 40
0
 41
0
  0
VERTEX
  8
0
 10
4.21685
 20
6.1466
 30
0.0
 40
0
 41
0
  0
VERTEX
  8
0
 10
4.25722
 20
6.15457
 30
0.0
 40
0
 41
0
  0
VERTEX
  8
0
 10
4.29753
 20
6.1466
 30
0.0
 40
0
 41
0
  0
VERTEX
  8
0
 10
4.32937
 20
6.12478
 30
0.0
 40
0
 41
0
  0
VERTEX
  8
0
 10
4.35026
 20
6.09233
 30
0.0
 40
0
 41
0
  0
VERTEX
  8
0
 10
4.35781
 20
6.0524
 30
0.0
 40
0
 41
0
  0
VERTEX
  8
0
 10
4.35086
 20
6.01004
 30
0.0
 40
0
 41
0
  0
VERTEX
  8
0
 10
4.33089
 20
5.97613
 30
0.0
 40
0
 41
0
  0
VERTEX
  8
0
 10
4.29926
 20
5.95356
 30
0.0
 40
0
 41
0
  0
VERTEX
  8
0
 10
4.25722
 20
5.94536
 30
0.0
 40
0
 41
0
  0
VERTEX
  8
0
 10
4.21511
 20
5.95356
 30
0.0
 40
0
 41
0
  0
VERTEX
  8
0
 10
4.18349
 20
5.97613
 30
0.0
 40
0
 41
0
  0
VERTEX
  8
0
 10
4.16357
 20
6.01004
 30
0.0
 40
0
 41
0
  0
VERTEX
  8
0
 10
4.15668
 20
6.0524
 30
0.0
 40
0
 41
0
  0
SEQEND
 8
0
  0
POLYLINE
  8
0
 62
     0
 66
     1
 10
0
 20
0
 30
0.0
 70
     1
 40
0
 41
0
  0
VERTEX
  8
0
 10
4.29372
 20
6.0524
 30
0.0
 40
0
 41
0
  0
VERTEX
  8
0
 10
4.29167
 20
6.07688
 30
0.0
 40
0
 41
0
  0
VERTEX
  8
0
 10
4.28515
 20
6.09581
 30
0.0
 40
0
 41
0
  0
VERTEX
  8
0
 10
4.27382
 20
6.10807
 30
0.0
 40
0
 41
0
  0
VERTEX
  8
0
 10
4.25722
 20
6.11242
 30
0.0
 40
0
 41
0
  0
VERTEX
  8
0
 10
4.24044
 20
6.10807
 30
0.0
 40
0
 41
0
  0
VERTEX
  8
0
 10
4.22885
 20
6.09581
 30
0.0
 40
0
 41
0
  0
VERTEX
  8
0
 10
4.22211
 20
6.07688
 30
0.0
 40
0
 41
0
  0
VERTEX
  8
0
 10
4.21994
 20
6.0524
 30
0.0
 40
0
 41
0
  0
VERTEX
  8
0
 10
4.22185
 20
6.02621
 30
0.0
 40
0
 41
0
  0
VERTEX
  8
0
 10
4.22825
 20
6.00569
 30
0.0
 40
0
 41
0
  0
VERTEX
  8
0
 10
4.23975
 20
5.99235
 30
0.0
 40
0
 41
0
  0
VERTEX
  8
0
 10
4.25722
 20
5.98753
 30
0.0
 40
0
 41
0
  0
VERTEX
  8
0
 10
4.27419
 20
5.99235
 30
0.0
 40
0
 41
0
  0
VERTEX
  8
0
 10
4.28549
 20
6.00569
 30
0.0
 40
0
 41
0
  0
VERTEX
  8
0
 10
4.29178
 20
6.02621
 30
0.0
 40
0
 41
0
  0
VERTEX
  8
0
 10
4.29372
 20
6.0524
 30
0.0
 40
0
 41
0
  0
SEQEND
 8
0
  0
POLYLINE
  8
0
 62
     0
 66
     1
 10
0
 20
0
 30
0.0
 70
     1
 40
0
 41
0
  0
VERTEX
  8
0
 10
4.55322
 20
5.94862
 30
0.0
 40
0
 41
0
  0
VERTEX
  8
0
 10
4.51188
 20
5.94862
 30
0.0
 40
0
 41
0
  0
VERTEX
  8
0
 10
4.48774
 20
5.97786
 30
0.0
 40
0
 41
0
  0
VERTEX
  8
0
 10
4.46246
 20
6.00906
 30
0.0
 40
0
 41
0
  0
VERTEX
  8
0
 10
4.43918
 20
6.03965
 30
0.0
 40
0
 41
0
  0
VERTEX
  8
0
 10
4.421
 20
6.067
 30
0.0
 40
0
 41
0
  0
VERTEX
  8
0
 10
4.42019
 20
6.067
 30
0.0
 40
0
 41
0
  0
VERTEX
  8
0
 10
4.42019
 20
5.94862
 30
0.0
 40
0
 41
0
  0
VERTEX
  8
0
 10
4.37239
 20
5.94862
 30
0.0
 40
0
 41
0
  0
VERTEX
  8
0
 10
4.37239
 20
6.15136
 30
0.0
 40
0
 41
0
  0
VERTEX
  8
0
 10
4.41699
 20
6.15136
 30
0.0
 40
0
 41
0
  0
VERTEX
  8
0
 10
4.44092
 20
6.12164
 30
0.0
 40
0
 41
0
  0
VERTEX
  8
0
 10
4.46619
 20
6.08974
 30
0.0
 40
0
 41
0
  0
VERTEX
  8
0
 10
4.48876
 20
6.05968
 30
0.0
 40
0
 41
0
  0
VERTEX
  8
0
 10
4.50456
 20
6.03538
 30
0.0
 40
0
 41
0
  0
VERTEX
  8
0
 10
4.50456
 20
6.03538
 30
0.0
 40
0
 41
0
  0
VERTEX
  8
0
 10
4.50456
 20
6.15136
 30
0.0
 40
0
 41
0
  0
VERTEX
  8
0
 10
4.55322
 20
6.15136
 30
0.0
 40
0
 41
0
  0
VERTEX
  8
0
 10
4.55322
 20
5.94862
 30
0.0
 40
0
 41
0
  0
SEQEND
 8
0
  0
POLYLINE
  8
0
 62
     0
 66
     1
 10
0
 20
0
 30
0.0
 70
     1
 40
0
 41
0
  0
VERTEX
  8
0
 10
4.69108
 20
6.15136
 30
0.0
 40
0
 41
0
  0
VERTEX
  8
0
 10
4.76812
 20
5.94862
 30
0.0
 40
0
 41
0
  0
VERTEX
  8
0
 10
4.70324
 20
5.94862
 30
0.0
 40
0
 41
0
  0
VERTEX
  8
0
 10
4.68782
 20
5.99647
 30
0.0
 40
0
 41
0
  0
VERTEX
  8
0
 10
4.62457
 20
5.99647
 30
0.0
 40
0
 41
0
  0
VERTEX
  8
0
 10
4.60508
 20
5.94862
 30
0.0
 40
0
 41
0
  0
VERTEX
  8
0
 10
4.55806
 20
5.94862
 30
0.0
 40
0
 41
0
  0
VERTEX
  8
0
 10
4.63997
 20
6.15136
 30
0.0
 40
0
 41
0
  0
VERTEX
  8
0
 10
4.69108
 20
6.15136
 30
0.0
 40
0
 41
0
  0
SEQEND
 8
0
  0
POLYLINE
  8
0
 62
     0
 66
     1
 10
0
 20
0
 30
0.0
 70
     1
 40
0
 41
0
  0
VERTEX
  8
0
 10
4.67811
 20
6.02892
 30
0.0
 40
0
 41
0
  0
VERTEX
  8
0
 10
4.66792
 20
6.06347
 30
0.0
 40
0
 41
0
  0
VERTEX
  8
0
 10
4.65782
 20
6.10107
 30
0.0
 40
0
 41
0
  0
VERTEX
  8
0
 10
4.65782
 20
6.10107
 30
0.0
 40
0
 41
0
  0
VERTEX
  8
0
 10
4.64643
 20
6.06347
 30
0.0
 40
0
 41
0
  0
VERTEX
  8
0
 10
4.6351
 20
6.02892
 30
0.0
 40
0
 41
0
  0
VERTEX
  8
0
 10
4.67811
 20
6.02892
 30
0.0
 40
0
 41
0
  0
SEQEND
 8
0
  0
POLYLINE
  8
0
 62
     0
 66
     1
 10
0
 20
0
 30
0.0
 70
     1
 40
0
 41
0
  0
VERTEX
  8
0
 10
4.7819
 20
6.15136
 30
0.0
 40
0
 41
0
  0
VERTEX
  8
0
 10
4.84353
 20
6.15136
 30
0.0
 40
0
 41
0
  0
VERTEX
  8
0
 10
4.84353
 20
5.98671
 30
0.0
 40
0
 41
0
  0
VERTEX
  8
0
 10
4.91732
 20
5.98671
 30
0.0
 40
0
 41
0
  0
VERTEX
  8
0
 10
4.91732
 20
5.94862
 30
0.0
 40
0
 41
0
  0
VERTEX
  8
0
 10
4.7819
 20
5.94862
 30
0.0
 40
0
 41
0
  0
VERTEX
  8
0
 10
4.7819
 20
6.15136
 30
0.0
 40
0
 41
0
  0
SEQEND
 8
0
  0
POLYLINE
  8
0
 62
     0
 66
     1
 10
0
 20
0
 30
0.0
 70
     1
 40
0
 41
0
  0
VERTEX
  8
0
 10
3.43169
 20
5.88618
 30
0.0
 40
0
 41
0
  0
VERTEX
  8
0
 10
3.49333
 20
5.88618
 30
0.0
 40
0
 41
0
  0
VERTEX
  8
0
 10
3.49333
 20
5.68343
 30
0.0
 40
0
 41
0
  0
VERTEX
  8
0
 10
3.43169
 20
5.68343
 30
0.0
 40
0
 41
0
  0
VERTEX
  8
0
 10
3.43169
 20
5.88618
 30
0.0
 40
0
 41
0
  0
SEQEND
 8
0
  0
POLYLINE
  8
0
 62
     0
 66
     1
 10
0
 20
0
 30
0.0
 70
     1
 40
0
 41
0
  0
VERTEX
  8
0
 10
3.69928
 20
5.68343
 30
0.0
 40
0
 41
0
  0
VERTEX
  8
0
 10
3.65875
 20
5.68343
 30
0.0
 40
0
 41
0
  0
VERTEX
  8
0
 10
3.60906
 20
5.74387
 30
0.0
 40
0
 41
0
  0
VERTEX
  8
0
 10
3.56793
 20
5.80181
 30
0.0
 40
0
 41
0
  0
VERTEX
  8
0
 10
3.56711
 20
5.80181
 30
0.0
 40
0
 41
0
  0
VERTEX
  8
0
 10
3.56711
 20
5.68343
 30
0.0
 40
0
 41
0
  0
VERTEX
  8
0
 10
3.51926
 20
5.68343
 30
0.0
 40
0
 41
0
  0
VERTEX
  8
0
 10
3.51926
 20
5.88618
 30
0.0
 40
0
 41
0
  0
VERTEX
  8
0
 10
3.56304
 20
5.88618
 30
0.0
 40
0
 41
0
  0
VERTEX
  8
0
 10
3.58697
 20
5.85644
 30
0.0
 40
0
 41
0
  0
VERTEX
  8
0
 10
3.61231
 20
5.82449
 30
0.0
 40
0
 41
0
  0
VERTEX
  8
0
 10
3.63488
 20
5.79417
 30
0.0
 40
0
 41
0
  0
VERTEX
  8
0
 10
3.65067
 20
5.76942
 30
0.0
 40
0
 41
0
  0
VERTEX
  8
0
 10
3.65147
 20
5.76942
 30
0.0
 40
0
 41
0
  0
VERTEX
  8
0
 10
3.65147
 20
5.88618
 30
0.0
 40
0
 41
0
  0
VERTEX
  8
0
 10
3.69928
 20
5.88618
 30
0.0
 40
0
 41
0
  0
VERTEX
  8
0
 10
3.69928
 20
5.68343
 30
0.0
 40
0
 41
0
  0
SEQEND
 8
0
  0
POLYLINE
  8
0
 62
     0
 66
     1
 10
0
 20
0
 30
0.0
 70
     1
 40
0
 41
0
  0
VERTEX
  8
0
 10
3.82824
 20
5.84403
 30
0.0
 40
0
 41
0
  0
VERTEX
  8
0
 10
3.79824
 20
5.85129
 30
0.0
 40
0
 41
0
  0
VERTEX
  8
0
 10
3.78504
 20
5.84765
 30
0.0
 40
0
 41
0
  0
VERTEX
  8
0
 10
3.78039
 20
5.83914
 30
0.0
 40
0
 41
0
  0
VERTEX
  8
0
 10
3.79129
 20
5.82215
 30
0.0
 40
0
 41
0
  0
VERTEX
  8
0
 10
3.81689
 20
5.80024
 30
0.0
 40
0
 41
0
  0
VERTEX
  8
0
 10
3.84283
 20
5.76861
 30
0.0
 40
0
 41
0
  0
VERTEX
  8
0
 10
3.84933
 20
5.73942
 30
0.0
 40
0
 41
0
  0
VERTEX
  8
0
 10
3.84608
 20
5.72254
 30
0.0
 40
0
 41
0
  0
VERTEX
  8
0
 10
3.83442
 20
5.70275
 30
0.0
 40
0
 41
0
  0
VERTEX
  8
0
 10
3.81136
 20
5.68631
 30
0.0
 40
0
 41
0
  0
VERTEX
  8
0
 10
3.77393
 20
5.67942
 30
0.0
 40
0
 41
0
  0
VERTEX
  8
0
 10
3.73953
 20
5.68386
 30
0.0
 40
0
 41
0
  0
VERTEX
  8
0
 10
3.71067
 20
5.69803
 30
0.0
 40
0
 41
0
  0
VERTEX
  8
0
 10
3.72933
 20
5.7321
 30
0.0
 40
0
 41
0
  0
VERTEX
  8
0
 10
3.74419
 20
5.72211
 30
0.0
 40
0
 41
0
  0
VERTEX
  8
0
 10
3.76335
 20
5.7175
 30
0.0
 40
0
 41
0
  0
VERTEX
  8
0
 10
3.78087
 20
5.7226
 30
0.0
 40
0
 41
0
  0
VERTEX
  8
0
 10
3.78933
 20
5.73861
 30
0.0
 40
0
 41
0
  0
VERTEX
  8
0
 10
3.77724
 20
5.76064
 30
0.0
 40
0
 41
0
  0
VERTEX
  8
0
 10
3.75364
 20
5.78076
 30
0.0
 40
0
 41
0
  0
VERTEX
  8
0
 10
3.72868
 20
5.8055
 30
0.0
 40
0
 41
0
  0
VERTEX
  8
0
 10
3.71957
 20
5.83507
 30
0.0
 40
0
 41
0
  0
VERTEX
  8
0
 10
3.72532
 20
5.85726
 30
0.0
 40
0
 41
0
  0
VERTEX
  8
0
 10
3.74094
 20
5.87446
 30
0.0
 40
0
 41
0
  0
VERTEX
  8
0
 10
3.76367
 20
5.88553
 30
0.0
 40
0
 41
0
  0
VERTEX
  8
0
 10
3.7909
 20
5.88943
 30
0.0
 40
0
 41
0
  0
VERTEX
  8
0
 10
3.82454
 20
5.88406
 30
0.0
 40
0
 41
0
  0
VERTEX
  8
0
 10
3.84364
 20
5.87565
 30
0.0
 40
0
 41
0
  0
VERTEX
  8
0
 10
3.82824
 20
5.84403
 30
0.0
 40
0
 41
0
  0
SEQEND
 8
0
  0
POLYLINE
  8
0
 62
     0
 66
     1
 10
0
 20
0
 30
0.0
 70
     1
 40
0
 41
0
  0
VERTEX
  8
0
 10
3.91015
 20
5.68343
 30
0.0
 40
0
 41
0
  0
VERTEX
  8
0
 10
3.91015
 20
5.84804
 30
0.0
 40
0
 41
0
  0
VERTEX
  8
0
 10
3.85097
 20
5.84804
 30
0.0
 40
0
 41
0
  0
VERTEX
  8
0
 10
3.85097
 20
5.88618
 30
0.0
 40
0
 41
0
  0
VERTEX
  8
0
 10
4.02935
 20
5.88618
 30
0.0
 40
0
 41
0
  0
VERTEX
  8
0
 10
4.02935
 20
5.84804
 30
0.0
 40
0
 41
0
  0
VERTEX
  8
0
 10
3.97097
 20
5.84804
 30
0.0
 40
0
 41
0
  0
VERTEX
  8
0
 10
3.97097
 20
5.68343
 30
0.0
 40
0
 41
0
  0
VERTEX
  8
0
 10
3.91015
 20
5.68343
 30
0.0
 40
0
 41
0
  0
SEQEND
 8
0
  0
POLYLINE
  8
0
 62
     0
 66
     1
 10
0
 20
0
 30
0.0
 70
     1
 40
0
 41
0
  0
VERTEX
  8
0
 10
4.04883
 20
5.88618
 30
0.0
 40
0
 41
0
  0
VERTEX
  8
0
 10
4.13965
 20
5.88618
 30
0.0
 40
0
 41
0
  0
VERTEX
  8
0
 10
4.17085
 20
5.88238
 30
0.0
 40
0
 41
0
  0
VERTEX
  8
0
 10
4.19374
 20
5.87147
 30
0.0
 40
0
 41
0
  0
VERTEX
  8
0
 10
4.20779
 20
5.85439
 30
0.0
 40
0
 41
0
  0
VERTEX
  8
0
 10
4.21262
 20
5.83187
 30
0.0
 40
0
 41
0
  0
VERTEX
  8
0
 10
4.20258
 20
5.79449
 30
0.0
 40
0
 41
0
  0
VERTEX
  8
0
 10
4.17854
 20
5.77344
 30
0.0
 40
0
 41
0
  0
VERTEX
  8
0
 10
4.22314
 20
5.68668
 30
0.0
 40
0
 41
0
  0
VERTEX
  8
0
 10
4.15831
 20
5.67942
 30
0.0
 40
0
 41
0
  0
VERTEX
  8
0
 10
4.12586
 20
5.75965
 30
0.0
 40
0
 41
0
  0
VERTEX
  8
0
 10
4.11046
 20
5.75965
 30
0.0
 40
0
 41
0
  0
VERTEX
  8
0
 10
4.11046
 20
5.68343
 30
0.0
 40
0
 41
0
  0
VERTEX
  8
0
 10
4.04883
 20
5.68343
 30
0.0
 40
0
 41
0
  0
VERTEX
  8
0
 10
4.04883
 20
5.88618
 30
0.0
 40
0
 41
0
  0
SEQEND
 8
0
  0
POLYLINE
  8
0
 62
     0
 66
     1
 10
0
 20
0
 30
0.0
 70
     1
 40
0
 41
0
  0
VERTEX
  8
0
 10
4.11046
 20
5.79779
 30
0.0
 40
0
 41
0
  0
VERTEX
  8
0
 10
4.1275
 20
5.79779
 30
0.0
 40
0
 41
0
  0
VERTEX
  8
0
 10
4.14567
 20
5.80642
 30
0.0
 40
0
 41
0
  0
VERTEX
  8
0
 10
4.15181
 20
5.82292
 30
0.0
 40
0
 41
0
  0
VERTEX
  8
0
 10
4.14399
 20
5.8431
 30
0.0
 40
0
 41
0
  0
VERTEX
  8
0
 10
4.12586
 20
5.84804
 30
0.0
 40
0
 41
0
  0
VERTEX
  8
0
 10
4.11046
 20
5.84804
 30
0.0
 40
0
 41
0
  0
VERTEX
  8
0
 10
4.11046
 20
5.79779
 30
0.0
 40
0
 41
0
  0
SEQEND
 8
0
  0
POLYLINE
  8
0
 62
     0
 66
     1
 10
0
 20
0
 30
0.0
 70
     1
 40
0
 41
0
  0
VERTEX
  8
0
 10
4.2921
 20
5.88618
 30
0.0
 40
0
 41
0
  0
VERTEX
  8
0
 10
4.2921
 20
5.77994
 30
0.0
 40
0
 41
0
  0
VERTEX
  8
0
 10
4.29335
 20
5.75558
 30
0.0
 40
0
 41
0
  0
VERTEX
  8
0
 10
4.29812
 20
5.73753
 30
0.0
 40
0
 41
0
  0
VERTEX
  8
0
 10
4.30778
 20
5.72629
 30
0.0
 40
0
 41
0
  0
VERTEX
  8
0
 10
4.32374
 20
5.72239
 30
0.0
 40
0
 41
0
  0
VERTEX
  8
0
 10
4.34711
 20
5.73731
 30
0.0
 40
0
 41
0
  0
VERTEX
  8
0
 10
4.35536
 20
5.78076
 30
0.0
 40
0
 41
0
  0
VERTEX
  8
0
 10
4.35536
 20
5.88618
 30
0.0
 40
0
 41
0
  0
VERTEX
  8
0
 10
4.40804
 20
5.88618
 30
0.0
 40
0
 41
0
  0
VERTEX
  8
0
 10
4.40804
 20
5.76372
 30
0.0
 40
0
 41
0
  0
VERTEX
  8
0
 10
4.40082
 20
5.72493
 30
0.0
 40
0
 41
0
  0
VERTEX
  8
0
 10
4.38157
 20
5.69878
 30
0.0
 40
0
 41
0
  0
VERTEX
  8
0
 10
4.35363
 20
5.68408
 30
0.0
 40
0
 41
0
  0
VERTEX
  8
0
 10
4.32047
 20
5.67942
 30
0.0
 40
0
 41
0
  0
VERTEX
  8
0
 10
4.28461
 20
5.68381
 30
0.0
 40
0
 41
0
  0
VERTEX
  8
0
 10
4.2564
 20
5.69797
 30
0.0
 40
0
 41
0
  0
VERTEX
  8
0
 10
4.2379
 20
5.72353
 30
0.0
 40
0
 41
0
  0
VERTEX
  8
0
 10
4.23128
 20
5.7621
 30
0.0
 40
0
 41
0
  0
VERTEX
  8
0
 10
4.23128
 20
5.88618
 30
0.0
 40
0
 41
0
  0
VERTEX
  8
0
 10
4.2921
 20
5.88618
 30
0.0
 40
0
 41
0
  0
SEQEND
 8
0
  0
POLYLINE
  8
0
 62
     0
 66
     1
 10
0
 20
0
 30
0.0
 70
     1
 40
0
 41
0
  0
VERTEX
  8
0
 10
4.6805
 20
5.68343
 30
0.0
 40
0
 41
0
  0
VERTEX
  8
0
 10
4.61968
 20
5.68343
 30
0.0
 40
0
 41
0
  0
VERTEX
  8
0
 10
4.61968
 20
5.82536
 30
0.0
 40
0
 41
0
  0
VERTEX
  8
0
 10
4.61892
 20
5.82536
 30
0.0
 40
0
 41
0
  0
VERTEX
  8
0
 10
4.59526
 20
5.75076
 30
0.0
 40
0
 41
0
  0
VERTEX
  8
0
 10
4.57107
 20
5.68343
 30
0.0
 40
0
 41
0
  0
VERTEX
  8
0
 10
4.53293
 20
5.68343
 30
0.0
 40
0
 41
0
  0
VERTEX
  8
0
 10
4.50786
 20
5.75076
 30
0.0
 40
0
 41
0
  0
VERTEX
  8
0
 10
4.48346
 20
5.82536
 30
0.0
 40
0
 41
0
  0
VERTEX
  8
0
 10
4.48346
 20
5.82536
 30
0.0
 40
0
 41
0
  0
VERTEX
  8
0
 10
4.48346
 20
5.68343
 30
0.0
 40
0
 41
0
  0
VERTEX
  8
0
 10
4.43485
 20
5.68343
 30
0.0
 40
0
 41
0
  0
VERTEX
  8
0
 10
4.43485
 20
5.88618
 30
0.0
 40
0
 41
0
  0
VERTEX
  8
0
 10
4.51753
 20
5.88618
 30
0.0
 40
0
 41
0
  0
VERTEX
  8
0
 10
4.53847
 20
5.82682
 30
0.0
 40
0
 41
0
  0
VERTEX
  8
0
 10
4.55886
 20
5.76128
 30
0.0
 40
0
 41
0
  0
VERTEX
  8
0
 10
4.55968
 20
5.76128
 30
0.0
 40
0
 41
0
  0
VERTEX
  8
0
 10
4.59944
 20
5.88618
 30
0.0
 40
0
 41
0
  0
VERTEX
  8
0
 10
4.6805
 20
5.88618
 30
0.0
 40
0
 41
0
  0
VERTEX
  8
0
 10
4.6805
 20
5.68343
 30
0.0
 40
0
 41
0
  0
SEQEND
 8
0
  0
POLYLINE
  8
0
 62
     0
 66
     1
 10
0
 20
0
 30
0.0
 70
     1
 40
0
 41
0
  0
VERTEX
  8
0
 10
4.82975
 20
5.84804
 30
0.0
 40
0
 41
0
  0
VERTEX
  8
0
 10
4.76812
 20
5.84804
 30
0.0
 40
0
 41
0
  0
VERTEX
  8
0
 10
4.76812
 20
5.80832
 30
0.0
 40
0
 41
0
  0
VERTEX
  8
0
 10
4.82813
 20
5.80832
 30
0.0
 40
0
 41
0
  0
VERTEX
  8
0
 10
4.82813
 20
5.77024
 30
0.0
 40
0
 41
0
  0
VERTEX
  8
0
 10
4.76812
 20
5.77024
 30
0.0
 40
0
 41
0
  0
VERTEX
  8
0
 10
4.76812
 20
5.72076
 30
0.0
 40
0
 41
0
  0
VERTEX
  8
0
 10
4.8419
 20
5.72076
 30
0.0
 40
0
 41
0
  0
VERTEX
  8
0
 10
4.8419
 20
5.68343
 30
0.0
 40
0
 41
0
  0
VERTEX
  8
0
 10
4.70649
 20
5.68343
 30
0.0
 40
0
 41
0
  0
VERTEX
  8
0
 10
4.70649
 20
5.88618
 30
0.0
 40
0
 41
0
  0
VERTEX
  8
0
 10
4.82975
 20
5.88618
 30
0.0
 40
0
 41
0
  0
VERTEX
  8
0
 10
4.82975
 20
5.84804
 30
0.0
 40
0
 41
0
  0
SEQEND
 8
0
  0
POLYLINE
  8
0
 62
     0
 66
     1
 10
0
 20
0
 30
0.0
 70
     1
 40
0
 41
0
  0
VERTEX
  8
0
 10
5.03326
 20
5.68343
 30
0.0
 40
0
 41
0
  0
VERTEX
  8
0
 10
4.99274
 20
5.68343
 30
0.0
 40
0
 41
0
  0
VERTEX
  8
0
 10
4.96858
 20
5.71267
 30
0.0
 40
0
 41
0
  0
VERTEX
  8
0
 10
4.94336
 20
5.74387
 30
0.0
 40
0
 41
0
  0
VERTEX
  8
0
 10
4.92008
 20
5.77447
 30
0.0
 40
0
 41
0
  0
VERTEX
  8
0
 10
4.90192
 20
5.80181
 30
0.0
 40
0
 41
0
  0
VERTEX
  8
0
 10
4.9011
 20
5.80181
 30
0.0
 40
0
 41
0
  0
VERTEX
  8
0
 10
4.9011
 20
5.68343
 30
0.0
 40
0
 41
0
  0
VERTEX
  8
0
 10
4.85325
 20
5.68343
 30
0.0
 40
0
 41
0
  0
VERTEX
  8
0
 10
4.85325
 20
5.88618
 30
0.0
 40
0
 41
0
  0
VERTEX
  8
0
 10
4.89785
 20
5.88618
 30
0.0
 40
0
 41
0
  0
VERTEX
  8
0
 10
4.92176
 20
5.85644
 30
0.0
 40
0
 41
0
  0
VERTEX
  8
0
 10
4.947
 20
5.82449
 30
0.0
 40
0
 41
0
  0
VERTEX
  8
0
 10
4.96935
 20
5.79417
 30
0.0
 40
0
 41
0
  0
VERTEX
  8
0
 10
4.98465
 20
5.76942
 30
0.0
 40
0
 41
0
  0
VERTEX
  8
0
 10
4.98546
 20
5.76942
 30
0.0
 40
0
 41
0
  0
VERTEX
  8
0
 10
4.98546
 20
5.88618
 30
0.0
 40
0
 41
0
  0
VERTEX
  8
0
 10
5.03326
 20
5.88618
 30
0.0
 40
0
 41
0
  0
VERTEX
  8
0
 10
5.03326
 20
5.68343
 30
0.0
 40
0
 41
0
  0
SEQEND
 8
0
  0
POLYLINE
  8
0
 62
     0
 66
     1
 10
0
 20
0
 30
0.0
 70
     1
 40
0
 41
0
  0
VERTEX
  8
0
 10
5.10303
 20
5.68343
 30
0.0
 40
0
 41
0
  0
VERTEX
  8
0
 10
5.10303
 20
5.84804
 30
0.0
 40
0
 41
0
  0
VERTEX
  8
0
 10
5.04465
 20
5.84804
 30
0.0
 40
0
 41
0
  0
VERTEX
  8
0
 10
5.04465
 20
5.88618
 30
0.0
 40
0
 41
0
  0
VERTEX
  8
0
 10
5.22222
 20
5.88618
 30
0.0
 40
0
 41
0
  0
VERTEX
  8
0
 10
5.22222
 20
5.84804
 30
0.0
 40
0
 41
0
  0
VERTEX
  8
0
 10
5.16385
 20
5.84804
 30
0.0
 40
0
 41
0
  0
VERTEX
  8
0
 10
5.16385
 20
5.68343
 30
0.0
 40
0
 41
0
  0
VERTEX
  8
0
 10
5.10303
 20
5.68343
 30
0.0
 40
0
 41
0
  0
SEQEND
 8
0
  0
POLYLINE
  8
0
 62
     0
 66
     1
 10
0
 20
0
 30
0.0
 70
     1
 40
0
 41
0
  0
VERTEX
  8
0
 10
5.34224
 20
5.84403
 30
0.0
 40
0
 41
0
  0
VERTEX
  8
0
 10
5.31222
 20
5.85129
 30
0.0
 40
0
 41
0
  0
VERTEX
  8
0
 10
5.29872
 20
5.84765
 30
0.0
 40
0
 41
0
  0
VERTEX
  8
0
 10
5.29438
 20
5.83914
 30
0.0
 40
0
 41
0
  0
VERTEX
  8
0
 10
5.30528
 20
5.82215
 30
0.0
 40
0
 41
0
  0
VERTEX
  8
0
 10
5.33089
 20
5.80024
 30
0.0
 40
0
 41
0
  0
VERTEX
  8
0
 10
5.35682
 20
5.76861
 30
0.0
 40
0
 41
0
  0
VERTEX
  8
0
 10
5.36333
 20
5.73942
 30
0.0
 40
0
 41
0
  0
VERTEX
  8
0
 10
5.36008
 20
5.72254
 30
0.0
 40
0
 41
0
  0
VERTEX
  8
0
 10
5.34842
 20
5.70275
 30
0.0
 40
0
 41
0
  0
VERTEX
  8
0
 10
5.32536
 20
5.68631
 30
0.0
 40
0
 41
0
  0
VERTEX
  8
0
 10
5.28792
 20
5.67942
 30
0.0
 40
0
 41
0
  0
VERTEX
  8
0
 10
5.25353
 20
5.68386
 30
0.0
 40
0
 41
0
  0
VERTEX
  8
0
 10
5.22467
 20
5.69803
 30
0.0
 40
0
 41
0
  0
VERTEX
  8
0
 10
5.24251
 20
5.7321
 30
0.0
 40
0
 41
0
  0
VERTEX
  8
0
 10
5.25776
 20
5.72211
 30
0.0
 40
0
 41
0
  0
VERTEX
  8
0
 10
5.27735
 20
5.7175
 30
0.0
 40
0
 41
0
  0
VERTEX
  8
0
 10
5.29486
 20
5.7226
 30
0.0
 40
0
 41
0
  0
VERTEX
  8
0
 10
5.30333
 20
5.73861
 30
0.0
 40
0
 41
0
  0
VERTEX
  8
0
 10
5.29124
 20
5.76064
 30
0.0
 40
0
 41
0
  0
VERTEX
  8
0
 10
5.26764
 20
5.78076
 30
0.0
 40
0
 41
0
  0
VERTEX
  8
0
 10
5.24268
 20
5.8055
 30
0.0
 40
0
 41
0
  0
VERTEX
  8
0
 10
5.23356
 20
5.83507
 30
0.0
 40
0
 41
0
  0
VERTEX
  8
0
 10
5.23931
 20
5.85726
 30
0.0
 40
0
 41
0
  0
VERTEX
  8
0
 10
5.25493
 20
5.87446
 30
0.0
 40
0
 41
0
  0
VERTEX
  8
0
 10
5.27767
 20
5.88553
 30
0.0
 40
0
 41
0
  0
VERTEX
  8
0
 10
5.30496
 20
5.88943
 30
0.0
 40
0
 41
0
  0
VERTEX
  8
0
 10
5.33826
 20
5.88406
 30
0.0
 40
0
 41
0
  0
VERTEX
  8
0
 10
5.35764
 20
5.87565
 30
0.0
 40
0
 41
0
  0
VERTEX
  8
0
 10
5.34224
 20
5.84403
 30
0.0
 40
0
 41
0
  0
SEQEND
 8
0
  0
POLYLINE
  8
0
 62
     0
 66
     1
 10
0
 20
0
 30
0.0
 70
     1
 40
0
 41
0
  0
VERTEX
  8
0
 10
5.37468
 20
5.85129
 30
0.0
 40
0
 41
0
  0
VERTEX
  8
0
 10
5.37468
 20
5.87967
 30
0.0
 40
0
 41
0
  0
VERTEX
  8
0
 10
5.36333
 20
5.87967
 30
0.0
 40
0
 41
0
  0
VERTEX
  8
0
 10
5.36333
 20
5.88292
 30
0.0
 40
0
 41
0
  0
VERTEX
  8
0
 10
5.3909
 20
5.88292
 30
0.0
 40
0
 41
0
  0
VERTEX
  8
0
 10
5.3909
 20
5.87967
 30
0.0
 40
0
 41
0
  0
VERTEX
  8
0
 10
5.38037
 20
5.87967
 30
0.0
 40
0
 41
0
  0
VERTEX
  8
0
 10
5.38037
 20
5.85129
 30
0.0
 40
0
 41
0
  0
VERTEX
  8
0
 10
5.37468
 20
5.85129
 30
0.0
 40
0
 41
0
  0
SEQEND
 8
0
  0
POLYLINE
  8
0
 62
     0
 66
     1
 10
0
 20
0
 30
0.0
 70
     1
 40
0
 41
0
  0
VERTEX
  8
0
 10
5.43306
 20
5.85129
 30
0.0
 40
0
 41
0
  0
VERTEX
  8
0
 10
5.42822
 20
5.85129
 30
0.0
 40
0
 41
0
  0
VERTEX
  8
0
 10
5.42822
 20
5.87483
 30
0.0
 40
0
 41
0
  0
VERTEX
  8
0
 10
5.4274
 20
5.87483
 30
0.0
 40
0
 41
0
  0
VERTEX
  8
0
 10
5.41521
 20
5.85129
 30
0.0
 40
0
 41
0
  0
VERTEX
  8
0
 10
5.412
 20
5.85129
 30
0.0
 40
0
 41
0
  0
VERTEX
  8
0
 10
5.40061
 20
5.87483
 30
0.0
 40
0
 41
0
  0
VERTEX
  8
0
 10
5.40061
 20
5.87483
 30
0.0
 40
0
 41
0
  0
VERTEX
  8
0
 10
5.39985
 20
5.87483
 30
0.0
 40
0
 41
0
  0
VERTEX
  8
0
 10
5.39985
 20
5.85129
 30
0.0
 40
0
 41
0
  0
VERTEX
  8
0
 10
5.39578
 20
5.85129
 30
0.0
 40
0
 41
0
  0
VERTEX
  8
0
 10
5.39578
 20
5.88292
 30
0.0
 40
0
 41
0
  0
VERTEX
  8
0
 10
5.40224
 20
5.88292
 30
0.0
 40
0
 41
0
  0
VERTEX
  8
0
 10
5.41444
 20
5.85943
 30
0.0
 40
0
 41
0
  0
VERTEX
  8
0
 10
5.4274
 20
5.88292
 30
0.0
 40
0
 41
0
  0
VERTEX
  8
0
 10
5.43306
 20
5.88292
 30
0.0
 40
0
 41
0
  0
VERTEX
  8
0
 10
5.43306
 20
5.85129
 30
0.0
 40
0
 41
0
  0
SEQEND
 8
0
  0
ENDSEC
  0
EOF
